#!OML:ASF H:\Dans Jumps\Project 1\Capture day 1\Session 1\subject.ASF
:FULLY-SPECIFIED
:DEGREES
697
root 0.170022 17.3552 -8.47005 11.9408 -1.07485 -1.18629
lowerback 7.3208 -0.00185221 -0.770571
upperback 6.44672 -0.0644028 1.58283
thorax 2.56613 -0.0971626 2.06908
lowerneck -14.2679 0.0500424 -1.53469
upperneck 28.3191 0.252905 0.746863
head 11.5875 0.0400304 0.574759
rclavicle -1.22253e-014 -9.54166e-015
rhumerus -18.7593 -4.21508 -84.8548
rradius 27.1834
rwrist 27.4066
rhand -18.6747 -25.4656
rfingers 7.12502
rthumb 7.61916 -55.3083
lclavicle -1.22253e-014 -9.54166e-015
lhumerus -17.4213 -11.7245 92.4191
lradius 21.4665
lwrist 15.2774
lhand -28.3637 -4.28567
lfingers 7.12502
lthumb -1.73713 25.687
rfemur -31.7007 -4.17319 20.4375
rtibia 36.1126
rfoot -14.4399 -1.99526
rtoes 15.298
lfemur -30.4298 6.73047 -18.7607
ltibia 33.1325
lfoot -12.8126 5.51838
ltoes 5.30188
698
root 0.170839 17.3611 -8.46425 11.8233 -1.0531 -1.18605
lowerback 7.23435 -0.00185843 -0.780892
upperback 6.414 -0.0644497 1.5781
thorax 2.5797 -0.0972758 2.06978
lowerneck -14.2268 0.0119862 -1.56385
upperneck 28.2605 0.203288 0.756647
head 11.5571 0.0162942 0.576081
rclavicle 2.98177e-016 -5.56597e-015
rhumerus -18.821 -4.20446 -84.852
rradius 27.1868
rwrist 27.3894
rhand -18.6702 -25.4833
rfingers 7.12502
rthumb 7.62347 -55.3259
lclavicle 2.98177e-016 -5.56597e-015
lhumerus -17.4929 -11.7003 92.4183
lradius 21.434
lwrist 15.2142
lhand -28.3544 -4.29563
lfingers 7.12502
lthumb -1.72824 25.6771
rfemur -31.4599 -4.19644 20.4217
rtibia 35.957
rfoot -14.3979 -1.97456
rtoes 15.3175
lfemur -30.1935 6.73155 -18.7507
ltibia 32.979
lfoot -12.7768 5.49191
ltoes 5.32776
699
root 0.171933 17.3667 -8.45874 11.7023 -1.02647 -1.18787
lowerback 7.14649 -0.00537429 -0.791983
upperback 6.38167 -0.0691957 1.57579
thorax 2.5947 -0.0998311 2.07363
lowerneck -14.1814 -0.0230768 -1.60074
upperneck 28.188 0.158148 0.772391
head 11.5205 -0.00548051 0.581491
rclavicle -5.96354e-015 -9.74045e-015
rhumerus -18.8712 -4.20493 -84.8473
rradius 27.1748
rwrist 27.3817
rhand -18.6801 -25.4937
rfingers 7.12502
rthumb 7.61392 -55.3366
lclavicle -5.96354e-015 -9.74045e-015
lhumerus -17.5546 -11.6559 92.4146
lradius 21.3873
lwrist 15.1312
lhand -28.2054 -4.10868
lfingers 7.12502
lthumb -1.58428 25.8652
rfemur -31.2167 -4.21589 20.4058
rtibia 35.8025
rfoot -14.353 -1.96071
rtoes 15.329
lfemur -29.9579 6.72105 -18.7364
ltibia 32.8287
lfoot -12.7369 5.47113
ltoes 5.35318
700
root 0.173354 17.3723 -8.45345 11.5739 -0.995766 -1.19124
lowerback 7.06085 -0.0127187 -0.803483
upperback 6.3515 -0.0790527 1.57479
thorax 2.611 -0.10501 2.07931
lowerneck -14.157 -0.052844 -1.62686
upperneck 28.1262 0.121633 0.775753
head 11.4922 -0.0238576 0.581799
rclavicle -2.98177e-015 2.98177e-015
rhumerus -18.912 -4.21057 -84.8422
rradius 27.1533
rwrist 27.3798
rhand -18.698 -25.4945
rfingers 7.12502
rthumb 7.59664 -55.3381
lclavicle -2.98177e-015 2.98177e-015
lhumerus -17.6132 -11.6006 92.4077
lradius 21.3386
lwrist 15.0348
lhand -28.0805 -3.96348
lfingers 7.12502
lthumb -1.46363 26.0112
rfemur -30.965 -4.23201 20.3892
rtibia 35.6466
rfoot -14.3055 -1.95376
rtoes 15.3273
lfemur -29.7175 6.70242 -18.7191
ltibia 32.6811
lfoot -12.6941 5.45448
ltoes 5.38242
701
root 0.175129 17.3777 -8.4485 11.4424 -0.960795 -1.19974
lowerback 6.9758 -0.0241265 -0.811253
upperback 6.32081 -0.0941281 1.57522
thorax 2.62666 -0.112684 2.0846
lowerneck -14.1422 -0.0784244 -1.6494
upperneck 28.0688 0.0910358 0.776394
head 11.4675 -0.0395851 0.581364
rclavicle -2.88238e-015 8.94531e-015
rhumerus -18.9481 -4.2197 -84.8381
rradius 27.1267
rwrist 27.3828
rhand -18.7161 -25.496
rfingers 7.12502
rthumb 7.5792 -55.3402
lclavicle -2.88238e-015 8.94531e-015
lhumerus -17.6683 -11.5407 92.3977
lradius 21.2861
lwrist 14.926
lhand -27.9648 -3.82903
lfingers 7.12502
lthumb -1.35187 26.1464
rfemur -30.7091 -4.2442 20.3763
rtibia 35.4874
rfoot -14.254 -1.955
rtoes 15.3136
lfemur -29.4775 6.67575 -18.6955
ltibia 32.5362
lfoot -12.6495 5.44131
ltoes 5.42088
702
root 0.177338 17.3832 -8.44373 11.3075 -0.922327 -1.21328
lowerback 6.88948 -0.0391209 -0.814301
upperback 6.28833 -0.113742 1.57669
thorax 2.64136 -0.122456 2.08847
lowerneck -14.1276 -0.103538 -1.67376
upperneck 28.0126 0.0610759 0.778618
head 11.4434 -0.0550517 0.581925
rclavicle 9.93923e-016 -6.75868e-015
rhumerus -18.9832 -4.23276 -84.8347
rradius 27.0948
rwrist 27.3901
rhand -18.7331 -25.4975
rfingers 7.12502
rthumb 7.56275 -55.3422
lclavicle 9.93923e-016 -6.75868e-015
lhumerus -17.7237 -11.4716 92.3855
lradius 21.2319
lwrist 14.8052
lhand -27.9326 -3.82767
lfingers 7.12502
lthumb -1.32079 26.148
rfemur -30.4469 -4.25399 20.3671
rtibia 35.323
rfoot -14.1995 -1.96311
rtoes 15.301
lfemur -29.2358 6.64532 -18.6674
ltibia 32.3924
lfoot -12.6037 5.43019
ltoes 5.45748
703
root 0.180108 17.3888 -8.43915 11.1705 -0.881552 -1.23304
lowerback 6.80125 -0.0572335 -0.810604
upperback 6.2528 -0.137188 1.57895
thorax 2.65409 -0.133881 2.0895
lowerneck -14.1157 -0.13021 -1.69427
upperneck 27.962 0.0289809 0.777038
head 11.422 -0.0715918 0.580175
rclavicle -6.75868e-015 -1.78906e-014
rhumerus -19.0224 -4.25094 -84.8305
rradius 27.06
rwrist 27.4052
rhand -18.7423 -25.5013
rfingers 7.12502
rthumb 7.55393 -55.3464
lclavicle -6.75868e-015 -1.78906e-014
lhumerus -17.7798 -11.3936 92.3715
lradius 21.1732
lwrist 14.6663
lhand -27.9369 -3.88621
lfingers 7.12502
lthumb -1.32496 26.0894
rfemur -30.1795 -4.26455 20.3631
rtibia 35.1529
rfoot -14.1412 -1.9741
rtoes 15.2795
lfemur -28.9921 6.61244 -18.6344
ltibia 32.2484
lfoot -12.5562 5.41977
ltoes 5.50127
704
root 0.183535 17.3945 -8.43457 11.0305 -0.840154 -1.2539
lowerback 6.71188 -0.0770478 -0.80472
upperback 6.21462 -0.162785 1.58088
thorax 2.6648 -0.14626 2.08899
lowerneck -14.0967 -0.159583 -1.71926
upperneck 27.9065 -0.00748528 0.780762
head 11.3974 -0.0899066 0.580515
rclavicle -4.77083e-015 -1.07344e-014
rhumerus -19.072 -4.26686 -84.8244
rradius 27.0329
rwrist 27.4192
rhand -18.7355 -25.5161
rfingers 7.12502
rthumb 7.56043 -55.3609
lclavicle -4.77083e-015 -1.07344e-014
lhumerus -17.8319 -11.3049 92.3578
lradius 21.1013
lwrist 14.5054
lhand -27.9132 -3.90593
lfingers 7.12502
lthumb -1.30209 26.0698
rfemur -29.9053 -4.27811 20.3584
rtibia 34.9775
rfoot -14.0817 -1.98622
rtoes 15.2561
lfemur -28.7434 6.57748 -18.6026
ltibia 32.1021
lfoot -12.508 5.41023
ltoes 5.55217
705
root 0.187573 17.4005 -8.4301 10.8893 -0.797427 -1.27543
lowerback 6.6196 -0.0987704 -0.798899
upperback 6.17323 -0.190907 1.58306
thorax 2.67389 -0.159874 2.08882
lowerneck -14.065 -0.192909 -1.75397
upperneck 27.843 -0.0504278 0.795324
head 11.3673 -0.110805 0.585569
rclavicle -2.08724e-015 -9.54166e-015
rhumerus -19.1289 -4.2829 -84.8156
rradius 27.0062
rwrist 27.4372
rhand -18.7261 -25.5436
rfingers 7.12502
rthumb 7.56949 -55.3882
lclavicle -2.08724e-015 -9.54166e-015
lhumerus -17.8829 -11.2058 92.3454
lradius 21.0203
lwrist 14.3225
lhand -27.8732 -3.90173
lfingers 7.12502
lthumb -1.26349 26.0743
rfemur -29.6273 -4.29582 20.353
rtibia 34.7975
rfoot -14.0207 -1.99769
rtoes 15.2407
lfemur -28.4927 6.54074 -18.5725
ltibia 31.953
lfoot -12.4582 5.40039
ltoes 5.60478
706
root 0.192135 17.4066 -8.42597 10.7464 -0.755367 -1.29744
lowerback 6.52658 -0.119948 -0.793689
upperback 6.12965 -0.218316 1.58414
thorax 2.6811 -0.173102 2.08777
lowerneck -14.0256 -0.231632 -1.7895
upperneck 27.7716 -0.102793 0.816063
head 11.3329 -0.135251 0.591708
rclavicle -9.93923e-017 -2.98177e-015
rhumerus -19.1944 -4.29891 -84.8051
rradius 26.9841
rwrist 27.4502
rhand -18.719 -25.56
rfingers 7.12502
rthumb 7.57638 -55.4043
lclavicle -9.93923e-017 -2.98177e-015
lhumerus -17.9335 -11.1022 92.3332
lradius 20.9356
lwrist 14.1216
lhand -27.8779 -3.95462
lfingers 7.12502
lthumb -1.26799 26.0214
rfemur -29.3468 -4.31327 20.3463
rtibia 34.6142
rfoot -13.9581 -2.00981
rtoes 15.2358
lfemur -28.2401 6.50386 -18.5439
ltibia 31.801
lfoot -12.4078 5.38883
ltoes 5.67024
707
root 0.197144 17.4127 -8.42234 10.6034 -0.713216 -1.32164
lowerback 6.43279 -0.141441 -0.790532
upperback 6.08383 -0.246244 1.58652
thorax 2.68647 -0.186664 2.08917
lowerneck -13.9779 -0.274397 -1.83017
upperneck 27.6934 -0.161452 0.842774
head 11.2944 -0.162334 0.600036
rclavicle -2.98177e-015 4.37326e-015
rhumerus -19.2663 -4.31034 -84.7922
rradius 26.9687
rwrist 27.4594
rhand -18.7212 -25.5735
rfingers 7.12502
rthumb 7.57427 -55.4179
lclavicle -2.98177e-015 4.37326e-015
lhumerus -17.9824 -10.9915 92.3235
lradius 20.8499
lwrist 13.9029
lhand -27.8755 -3.98721
lfingers 7.12502
lthumb -1.26567 25.9888
rfemur -29.0664 -4.32895 20.3406
rtibia 34.4283
rfoot -13.8925 -2.0247
rtoes 15.234
lfemur -27.989 6.46711 -18.5145
ltibia 31.6477
lfoot -12.3555 5.37434
ltoes 5.74769
708
root 0.202578 17.4189 -8.41948 10.4614 -0.673366 -1.34838
lowerback 6.33816 -0.163917 -0.791906
upperback 6.03752 -0.275703 1.59087
thorax 2.69194 -0.201198 2.09517
lowerneck -13.9357 -0.318694 -1.87265
upperneck 27.6153 -0.222689 0.872771
head 11.2572 -0.190402 0.609551
rclavicle -1.09332e-015 -8.74653e-015
rhumerus -19.3366 -4.30961 -84.7784
rradius 26.9554
rwrist 27.4606
rhand -18.7348 -25.5772
rfingers 7.12502
rthumb 7.56109 -55.422
lclavicle -1.09332e-015 -8.74653e-015
lhumerus -18.0296 -10.8797 92.3151
lradius 20.7683
lwrist 13.674
lhand -27.9176 -4.07985
lfingers 7.12502
lthumb -1.30632 25.8959
rfemur -28.7896 -4.33939 20.3358
rtibia 34.2406
rfoot -13.822 -2.04123
rtoes 15.2401
lfemur -27.7418 6.43352 -18.4845
ltibia 31.4941
lfoot -12.3002 5.35759
ltoes 5.82939
709
root 0.208459 17.425 -8.41751 10.3224 -0.638868 -1.37947
lowerback 6.24223 -0.186327 -0.796091
upperback 5.99061 -0.305219 1.59658
thorax 2.6976 -0.215893 2.10409
lowerneck -13.9098 -0.36388 -1.90996
upperneck 27.5475 -0.285994 0.901789
head 11.2273 -0.219054 0.617612
rclavicle -2.18663e-015 2.00773e-014
rhumerus -19.4042 -4.29989 -84.7656
rradius 26.944
rwrist 27.4519
rhand -18.757 -25.5712
rfingers 7.12502
rthumb 7.53975 -55.4168
lclavicle -2.18663e-015 2.00773e-014
lhumerus -18.0715 -10.775 92.3079
lradius 20.6882
lwrist 13.4296
lhand -27.9747 -4.19145
lfingers 7.12502
lthumb -1.36152 25.784
rfemur -28.52 -4.34 20.3331
rtibia 34.0516
rfoot -13.7446 -2.05881
rtoes 15.2589
lfemur -27.5011 6.40496 -18.4526
ltibia 31.3403
lfoot -12.2409 5.34026
ltoes 5.91367
